PathFileType	4	(X/Y/Z)	/Users/whiskymisky/masters/Sports2D_results/trial_4_Sports2D/trial_4_Sports2D_m_person00.trc
DataRate	CameraRate	NumFrames	NumMarkers	Units	OrigDataRate	OrigDataStartFrame	OrigNumFrames
50	50	11	22	m	50	0	1098
Frame#	Time	Hip			RHip			RKnee			RAnkle			RBigToe			RSmallToe			RHeel			LHip			LKnee			LAnkle			LBigToe			LSmallToe			LHeel			Neck			Head			Nose			RShoulder			RElbow			RWrist			LShoulder			LElbow			LWrist		
		X1	Y1	Z1	X2	Y2	Z2	X3	Y3	Z3	X4	Y4	Z4	X5	Y5	Z5	X6	Y6	Z6	X7	Y7	Z7	X8	Y8	Z8	X9	Y9	Z9	X10	Y10	Z10	X11	Y11	Z11	X12	Y12	Z12	X13	Y13	Z13	X14	Y14	Z14	X15	Y15	Z15	X16	Y16	Z16	X17	Y17	Z17	X18	Y18	Z18	X19	Y19	Z19	X20	Y20	Z20	X21	Y21	Z21	X22	Y22	Z22
0	0.0	4.314571288172404	0.8330644806190051	0.0301	4.1922888572440264	0.8733032257052314	0.0301	3.8960471593649477	0.5267280800800639	0.129	3.6502155736488615	0.19159463047969058	0.023	3.5858617224606606	0.10571917417141974	0.2179	3.535901699015707	0.14106744473241753	0.1804	3.6470651159247542	0.13926417712294842	-0.0119	4.40759262744165	0.7788244628001117	0.0301	4.292464438291579	0.3595026883260722	0.129	4.1858657806188235	0.0035300809132647036	0.023	4.198029199462453	-0.10921046167469249	0.2179	4.246494243769675	-0.11705589701297106	0.1804	4.142346736462292	-0.02436979721655465	-0.0119	4.590672799082017	1.3831687926566543	0.0008	4.711388784675434	1.6456706790871412	0.0655	4.61811026382381	1.4852355513602284	0.1076	4.369063646911828	1.3729992414461827	-0.01275	4.184132499258065	1.1319534375767233	0.0702	4.049600093853079	0.9023684647991965	0.1076	4.732777585376212	1.1999758965614298	-0.01275	4.640118854366507	0.9184405423208681	0.0702	4.505581172435877	0.6888412196622709	0.1076
1	0.02	4.31542097493697	0.8419550633493251	0.0301	4.19636229845064	0.8792812699967745	0.0301	3.898521675869128	0.5266090781228665	0.129	3.6467756072533257	0.18919960802925953	0.023	3.591217266553634	0.10255296800697984	0.2179	3.5392043140158336	0.13835531838421433	0.1804	3.645744361456185	0.1446564170348842	-0.0119	4.4097079234786944	0.7812246487113648	0.0301	4.291441255868128	0.36158337791414524	0.129	4.184454214449096	-0.00023816492955557506	0.023	4.1969576979345335	-0.11128763695984822	0.2179	4.242801292411721	-0.113392277476998	0.1804	4.145169357303513	-0.02347444583063703	-0.0119	4.588421618651094	1.3807267818200886	0.0008	4.708509300423012	1.6389725022962416	0.0655	4.616633335857917	1.4837393492738236	0.1076	4.3706766721686305	1.3733451439359652	-0.01275	4.18675512306678	1.1316290408540217	0.0702	4.050185964471688	0.8998107033103422	0.1076	4.730673548633194	1.2044922256655821	-0.01275	4.637970070158005	0.9233057209658894	0.0702	4.506169459852338	0.6922885871011103	0.1076
2	0.04	4.316296611944034	0.8480422575948328	0.0301	4.198963908591321	0.8832330555273871	0.0301	3.900299509827979	0.5267422273601139	0.129	3.644464204272626	0.187689741670875	0.023	3.594683338364183	0.10041987415713494	0.2179	3.541269950502312	0.13653785239675484	0.1804	3.644481389945432	0.14833496923326067	-0.0119	4.41100718154537	0.7826413970385339	0.0301	4.290721212031329	0.36295010433954733	0.129	4.1836360647917745	-0.0026286275215410353	0.023	4.1963205382277	-0.11277391747762956	0.2179	4.240298205247208	-0.11101246591617665	0.1804	4.147017408026513	-0.022866115880679567	-0.0119	4.586848690475074	1.378887513006268	0.0008	4.706713653671126	1.6344687400698394	0.0655	4.615876647268436	1.482477326922751	0.1076	4.371603923934385	1.3733730993978501	-0.01275	4.188385880740233	1.1311209774483677	0.0702	4.0506082544369235	0.8977855985054263	0.1076	4.729262960873598	1.2074952462772353	-0.01275	4.636329338002826	0.9261912686721245	0.0702	4.5062985587648745	0.6945216627225103	0.1076
3	0.06	4.317211815008752	0.8505574758609431	0.0301	4.199629416377755	0.8846368148550343	0.0301	3.901127524114118	0.5271077561591087	0.129	3.6435775293458565	0.1871431745168929	0.023	3.5959909853041316	0.09953460077652589	0.2179	3.5419196718078982	0.13582574768130073	0.1804	3.643548429411357	0.14988729980566204	-0.0119	4.411394238695115	0.7829468075359103	0.0301	4.290332649742875	0.36324579694873427	0.129	4.183420029301685	-0.0033460876835226154	0.023	4.196150485835852	-0.1134770438285777	0.2179	4.239410267872455	-0.11019539177331346	0.1804	4.1477050164713525	-0.022708026733681632	-0.0119	4.58617891465997	1.3778090319746024	0.0008	4.706289999879232	1.6325617945709026	0.0655	4.615789599096542	1.4817465190280554	0.1076	4.371958182948554	1.373125079956704	-0.01275	4.188900474586094	1.1307134732636708	0.0702	4.050953332271248	0.8966349992818138	0.1076	4.7286519255615875	1.208570553828409	-0.01275	4.635469941124159	0.9268382460168442	0.0702	4.50594027656232	0.6953250797955259	0.1076
4	0.08	4.318116217263841	0.8508864408441712	0.0301	4.199099928296544	0.8846594087789007	0.0301	3.9013236931305286	0.5274622067213208	0.129	3.643491777591019	0.18701069708196094	0.023	3.596258477276342	0.09932089272000298	0.2179	3.5419193939601428	0.13571796257745264	0.1804	3.643102714482527	0.15018329235207034	-0.0119	4.411438021157567	0.7829260672982316	0.0301	4.290076678730405	0.36277167468011157	0.129	4.183452139344159	-0.003155704776097385	0.023	4.196108737578669	-0.11371061382368836	0.2179	4.23959897991597	-0.1102665550437451	0.1804	4.147776172598245	-0.022824681363457035	-0.0119	4.586178631121155	1.377226225597572	0.0008	4.706733124145642	1.6319254944261778	0.0655	4.615817049034907	1.4816869284110818	0.1076	4.372267024941437	1.3728289366570652	-0.01275	4.18895689965795	1.130768205499336	0.0702	4.051551016665064	0.8962681386748171	0.1076	4.7285209775373005	1.2083382182494993	-0.01275	4.635170986542292	0.9264097576953578	0.0702	4.50538459690941	0.6952783860212879	0.1076
5	0.1	4.318802078446418	0.8506661221867023	0.0301	4.198398280677577	0.8845320013934106	0.0301	3.901342770248115	0.5276118308340927	0.129	3.6435022696840758	0.1869378282146037	0.023	3.5964807981148095	0.09917401754030702	0.2179	3.541884340182831	0.13569049588175947	0.1804	3.6429970581018467	0.1501274172311855	-0.0119	4.411611425736365	0.78328838831079	0.0301	4.28982737102531	0.3621894381096987	0.129	4.18351816192336	-0.0029175943534997793	0.023	4.1959485226706645	-0.11395137915934309	0.2179	4.240079088155045	-0.11055004423764263	0.1804	4.1477569337427065	-0.0228486811309105	-0.0119	4.586565086289351	1.376919285312465	0.0008	4.7073543438912475	1.6313819787344392	0.0655	4.615723039556273	1.4821038629827676	0.1076	4.372691846007058	1.3725509911463216	-0.01275	4.189090198551343	1.131156852501598	0.0702	4.052447678449827	0.8962994441153989	0.1076	4.728538369010719	1.207666613599764	-0.01275	4.634951656110133	0.9258230708600352	0.0702	4.504959419633089	0.6948670086760899	0.1076
6	0.12	4.318996416065778	0.8502823502626888	0.0301	4.1979532968767925	0.8842725679227971	0.0301	3.9012947520795103	0.5275958932182687	0.129	3.643530056211496	0.18699775237307303	0.023	3.5968005974659585	0.09898406988678674	0.2179	3.5417677778102745	0.1357051568427145	0.1804	3.643130403359325	0.14983215634861413	-0.0119	4.411831184278838	0.7838578689545673	0.0301	4.289679925460789	0.3618482097398526	0.129	4.183611918153965	-0.002800479292385693	0.023	4.195732564081524	-0.11435116976446305	0.2179	4.2405707801568315	-0.11091709674325521	0.1804	4.147729584679516	-0.022645654318293608	-0.0119	4.587180144427473	1.3769587810678305	0.0008	4.7078673537738265	1.6311084471085835	0.0655	4.615715235097533	1.4825940847798291	0.1076	4.372993191797536	1.3722424029732205	-0.01275	4.18919177454746	1.1314569066774476	0.0702	4.053164082988018	0.8964538546887884	0.1076	4.728546169337248	1.2070840060480543	-0.01275	4.634673654755209	0.9250821896211848	0.0702	4.504897527125856	0.6942496888179055	0.1076
7	0.14	4.318612576864622	0.8496650947042491	0.0301	4.197824127180825	0.8836272017996639	0.0301	3.901118305652283	0.5275906477110599	0.129	3.6437080244290003	0.18715026068735904	0.023	3.5971407379038127	0.09884917094866989	0.2179	3.5415320599914772	0.13585741339514892	0.1804	3.643570519430752	0.1492319823158525	-0.0119	4.411897205187955	0.7841592770169067	0.0301	4.289723252496257	0.36166317295390826	0.129	4.183720570641857	-0.0025737048828621935	0.023	4.195530486048577	-0.1146907722317874	0.2179	4.241014856662846	-0.11131528078440195	0.1804	4.147682787987975	-0.02233649291617976	-0.0119	4.587716453932841	1.3773807530357627	0.0008	4.70834158303113	1.631574737083684	0.0655	4.61590238369417	1.4828334738073534	0.1076	4.373016913205232	1.3720721451941533	-0.01275	4.18903594332428	1.1315246331518845	0.0702	4.053287553409436	0.8966652641156647	0.1076	4.728557345982473	1.2067112410139758	-0.01275	4.634549786947201	0.9241882642460366	0.0702	4.505226703038838	0.6936460225375595	0.1076
8	0.16	4.317864363784275	0.8493467384465303	0.0301	4.198187899977116	0.8831375503408926	0.0301	3.900959656174958	0.5276715116145319	0.129	3.6437753794024186	0.18706122651835505	0.023	3.597648981248819	0.09868854127268546	0.2179	3.5415637881310946	0.13593448568000852	0.1804	3.644172203169112	0.1487574907852984	-0.0119	4.411947978654024	0.7842859975846501	0.0301	4.289846246571285	0.3615753278554551	0.129	4.183782226405652	-0.002319433355679627	0.023	4.1952394608768735	-0.11475950419472448	0.2179	4.241096748801304	-0.11142039139433083	0.1804	4.14779247028691	-0.022003872627301593	-0.0119	4.587796023009191	1.3779574040373541	0.0008	4.708762455773317	1.6322923868936037	0.0655	4.616187999606944	1.482765132398054	0.1076	4.37286850662614	1.3723413496331451	-0.01275	4.188828861766967	1.1315301027968585	0.0702	4.052969634785957	0.8969160947413425	0.1076	4.728607671254346	1.2064988888572765	-0.01275	4.634607456842685	0.9236649783922605	0.0702	4.505728128457747	0.6933333370459014	0.1076
9	0.18	4.317138329433013	0.8496198521558307	0.0301	4.199088939309021	0.8832505088034349	0.0301	3.9009916006743053	0.5277740312643177	0.129	3.6434789894696427	0.18662288723309173	0.023	3.5982343543134503	0.09844398388775016	0.2179	3.542041580128484	0.13573033900316264	0.1804	3.6445048492731553	0.148770816158144	-0.0119	4.412111437661655	0.7844908237557607	0.0301	4.289949439542405	0.36174070986721046	0.129	4.183813725677504	-0.002301023924300797	0.023	4.194804981388389	-0.1146128199256238	0.2179	4.240659686019422	-0.11113500516752205	0.1804	4.14807608593295	-0.021696279614071997	-0.0119	4.587461819262018	1.3784711608785172	0.0008	4.709000971839378	1.632552627709676	0.0655	4.6165709420214975	1.4825401523707569	0.1076	4.372642429672466	1.372995532936057	-0.01275	4.188816142093336	1.1315330089641173	0.0702	4.052561599105928	0.8972116028497716	0.1076	4.728650664698721	1.2063891337072896	-0.01275	4.634657897962146	0.9237929912243413	0.0702	4.506107803662829	0.6933174647822207	0.1076
10	0.2	4.316742648659852	0.8497911067911196	0.0301	4.2000834349476035	0.8834059991353148	0.0301	3.9010873173327774	0.5278608387558574	0.129	3.643168397990591	0.18616001899848672	0.023	3.598420345470937	0.0983285081877058	0.2179	3.542532507831378	0.13546136673333342	0.1804	3.6444336014797494	0.1489377979884629	-0.0119	4.412177070398552	0.7845495155995286	0.0301	4.290132903985312	0.3622021994296978	0.129	4.1838787052110655	-0.002394935206547954	0.023	4.1943828737809365	-0.1144472994466375	0.2179	4.240121307676183	-0.11084797454316758	0.1804	4.1482454885824245	-0.02153461823800748	-0.0119	4.5871104140622245	1.3788751929583491	0.0008	4.709070703693106	1.6325564180806234	0.0655	4.617121493369468	1.4822830357216958	0.1076	4.372315587921367	1.3735933696324167	-0.01275	4.188815629603338	1.1314245114496488	0.0702	4.052159945647036	0.8976225492294048	0.1076	4.728658862672583	1.2063258310129397	-0.01275	4.634705324738692	0.9241113514920173	0.0702	4.506305368349596	0.6934404432378791	0.1076
